<svg width="512" height="512" viewBox="0 0 512 512" xmlns="http://www.w3.org/2000/svg" role="img" aria-label="imgcli">
  <defs>
    <linearGradient id="tile" x1="0" y1="0" x2="0" y2="1">
      <stop offset="0" stop-color="#1F2937"/>
      <stop offset="1" stop-color="#0B1220"/>
    </linearGradient>
    <clipPath id="photo">
      <rect x="104" y="116" width="304" height="252" rx="32"/>
    </clipPath>
  </defs>

  <!-- app tile -->
  <rect x="24" y="24" width="464" height="464" rx="112" fill="url(#tile)"/>

  <!-- photo panel -->
  <rect x="104" y="116" width="304" height="252" rx="32" fill="#F8FAFC"/>
  <g clip-path="url(#photo)">
    <!-- sun -->
    <circle cx="186" cy="190" r="34" fill="#F59E0B"/>
    <!-- mountains -->
    <polygon points="104,368 104,320 178,248 242,312 324,222 408,300 408,368" fill="#F59E0B"/>
    <polygon points="244,368 244,330 300,286 356,330 356,368" fill="#FBBF24"/>
  </g>

  <!-- convert badge -->
  <circle cx="392" cy="388" r="84" fill="#0B1220"/>
  <circle cx="392" cy="388" r="72" fill="#F59E0B"/>
  <g stroke="#0B1220" stroke-width="17" stroke-linecap="round" stroke-linejoin="round" fill="none">
    <path d="M352 372 H424"/>
    <path d="M408 356 L428 372 L408 388"/>
    <path d="M432 404 H360"/>
    <path d="M376 388 L356 404 L376 420"/>
  </g>
</svg>
